<?xml version="1.0" ?>
<svg xmlns="http://www.w3.org/2000/svg" xmlns:xlink="http://www.w3.org/1999/xlink" version="1.1" id="Layer_1" viewBox="0 0 100 100" style="enable-background:new 0 0 100 100;" xml:space="preserve"><style type="text/css">
	.st0{fill:#E5E7EB;}
	.st1{fill:#8A2BE2;}
</style><g>
<circle class="st0" cx="63.8" cy="36.1" r="16.8"/><g>
<path class="st1" d="M63.9,41.8H35.9l-1.8-2.4c-0.2-0.3-0.5-0.4-0.9-0.4H20.4c-0.6,0-1.1,0.5-1.1,1.1v39.6c0,0.6,0.5,1.1,1.1,1.1    h43.5c0.6,0,1.1-0.5,1.1-1.1v-30v-6.8C65.1,42.2,64.6,41.8,63.9,41.8z M62.8,44v4.5H40.9L37.5,44H62.8z M62.8,78.5H21.5V41.1h11.1    l6.9,9.2c0.2,0.3,0.5,0.4,0.9,0.4h22.5V78.5z"/>
<path class="st1" d="M25,63.5c0,5,4.1,9.1,9.1,9.1s9.1-4.1,9.1-9.1c0-5-4.1-9.1-9.1-9.1S25,58.4,25,63.5z M40.9,63.5    c0,3.8-3.1,6.9-6.9,6.9c-3.8,0-6.9-3.1-6.9-6.9c0-3.8,3.1-6.9,6.9-6.9C37.8,56.6,40.9,59.7,40.9,63.5z"/>
<path class="st1" d="M33,60.2v2.1h-2.1c-0.6,0-1.1,0.5-1.1,1.1c0,0.6,0.5,1.1,1.1,1.1H33v2.2c0,0.6,0.5,1.1,1.1,1.1    c0.6,0,1.1-0.5,1.1-1.1v-2.2h2.2c0.6,0,1.1-0.5,1.1-1.1c0-0.6-0.5-1.1-1.1-1.1h-2.2v-2.1c0-0.6-0.5-1.1-1.1-1.1    C33.4,59.1,33,59.6,33,60.2z"/>
<path class="st1" d="M48.5,63.7H57c0.6,0,1.1-0.5,1.1-1.1c0-0.6-0.5-1.1-1.1-1.1h-8.5c-0.6,0-1.1,0.5-1.1,1.1    C47.3,63.2,47.8,63.7,48.5,63.7z"/>
<path class="st1" d="M48.5,68.2H57c0.6,0,1.1-0.5,1.1-1.1S57.6,66,57,66h-8.5c-0.6,0-1.1,0.5-1.1,1.1S47.8,68.2,48.5,68.2z"/>
<path class="st1" d="M68.4,35c1.2-1.2,1.9-2.8,1.9-4.5c0-3.5-2.9-6.4-6.4-6.4c-3.5,0-6.4,2.9-6.4,6.4c0,1.7,0.7,3.3,1.8,4.5    c-1.3,0.7-2.4,1.6-3.2,2.8c-0.3,0.5-0.2,1.2,0.3,1.5c0.5,0.3,1.2,0.2,1.5-0.3c0.7-1.1,2-2,3.4-2.5c0.8,0.4,1.6,0.6,2.5,0.6    c0.9,0,1.7-0.3,2.5-0.6c2.8,1.1,4.7,3.8,4.7,6.8v1.3c0,0.6,0.5,1.1,1.1,1.1s1.1-0.5,1.1-1.1v-1.3C73.2,39.8,71.4,36.7,68.4,35z     M63.8,26.3c2.3,0,4.2,1.9,4.2,4.2c0,2.3-1.9,4.2-4.2,4.2c-2.3,0-4.2-1.9-4.2-4.2C59.6,28.1,61.5,26.3,63.8,26.3z"/></g></g></svg>