<?xml version="1.0" encoding="iso-8859-1"?>
<!-- Generator: Adobe Illustrator 16.0.0, SVG Export Plug-In . SVG Version: 6.00 Build 0)  -->
<!DOCTYPE svg PUBLIC "-//W3C//DTD SVG 1.1//EN" "http://www.w3.org/Graphics/SVG/1.1/DTD/svg11.dtd">
<svg version="1.1" id="Capa_1" xmlns="http://www.w3.org/2000/svg" xmlns:xlink="http://www.w3.org/1999/xlink" x="0px" y="0px"
	 width="611.989px" height="611.988px" viewBox="0 0 611.989 611.988" style="enable-background:new 0 0 611.989 611.988;"
	 xml:space="preserve">
<g>
	<path d="M446.003,422.164l0.678-0.812c3.253-3.762,6.449-7.613,9.466-11.533l0.723-0.926l1.13-1.514
		c33.412-44.279,51.067-97.154,51.067-152.854c0-67.989-26.454-131.922-74.552-179.985C386.441,26.477,322.519,0,254.553,0
		C186.542,0,122.619,26.477,74.556,74.54C26.47,122.603,0.004,186.537,0.004,254.525c0,67.988,26.466,131.899,74.551,179.997
		c48.075,48.085,111.986,74.551,179.997,74.551c56.083,0,111.353-18.875,155.598-53.18c3.716-2.881,7.488-5.976,11.239-9.206
		l0.621-0.542l0.779-0.678c4.473-3.92,8.246-7.455,11.736-10.946c3.58-3.569,7.104-7.342,10.787-11.555L446.003,422.164z
		 M394.913,394.896c-37.49,37.502-87.35,58.128-140.405,58.128c-52.988,0-102.825-20.626-140.326-58.128
		c-37.513-37.501-58.15-87.326-58.15-140.292c0-53.079,20.637-102.96,58.139-140.439c37.49-37.513,87.35-58.161,140.383-58.161
		c53.01,0,102.87,20.648,140.382,58.15c37.479,37.502,58.128,87.361,58.128,140.383
		C453.051,307.536,432.403,357.384,394.913,394.896z M611.507,550.856l-7.478-7.433l0.034-0.012l-82.368-82.368
		c-0.396-0.418-0.938-0.508-1.276-0.508s-0.836,0.09-1.276,0.53l-2.768,2.745l-38.892,38.902l-16.435,16.436
		c-0.339,0.361-0.52,0.791-0.52,1.321c0,0.418,0.191,0.848,0.52,1.209l89.789,89.823c0.327,0.339,0.779,0.485,1.311,0.485
		c0.293,0,0.802-0.079,1.186-0.475l29.098-29.063l29.041-29.086c0.351-0.339,0.509-0.769,0.509-1.266
		C612.004,551.591,611.834,551.161,611.507,550.856z M486.645,456.346l-19.011-19c-0.813,0.938-1.615,1.864-2.417,2.79l-0.282,0.328
		l-0.531,0.621c-4.01,4.495-7.681,8.393-11.296,12.007c-3.524,3.524-7.309,7.094-11.951,11.217l-0.102,0.124l-0.463,0.385
		c-1.073,0.938-2.157,1.863-3.242,2.79l19.011,19.033l15.147-15.17L486.645,456.346z"/>
</g>
<g>
</g>
<g>
</g>
<g>
</g>
<g>
</g>
<g>
</g>
<g>
</g>
<g>
</g>
<g>
</g>
<g>
</g>
<g>
</g>
<g>
</g>
<g>
</g>
<g>
</g>
<g>
</g>
<g>
</g>
</svg>
