<svg xmlns="http://www.w3.org/2000/svg" xmlns:xlink="http://www.w3.org/1999/xlink" viewBox="0,0,256,256" width="32px" height="32px" fill-rule="nonzero"><g fill="#8a2be2" fill-rule="nonzero" stroke="none" stroke-width="1" stroke-linecap="butt" stroke-linejoin="miter" stroke-miterlimit="10" stroke-dasharray="" stroke-dashoffset="0" font-family="none" font-weight="none" font-size="none" text-anchor="none" style="mix-blend-mode: normal"><g transform="scale(8,8)"><path d="M24.186,4.641c-0.447,-0.324 -1.073,-0.225 -1.396,0.226c-0.288,0.398 -0.223,0.926 0.107,1.267c0,0.013 -0.002,0.031 0.002,0.035c1.17,1.193 -0.364,3.265 -1.912,2.338c-2.797,-1.734 -6.431,-1.781 -9.26,-0.249c-2.85,1.523 -4.784,4.648 -4.786,7.983c-0.42,7.478 7.56,12.527 14.457,10.462c-1.625,0.823 -3.455,1.297 -5.398,1.297c-6.617,0 -12,-5.382 -12,-12c0,-6.618 5.383,-12 12,-12c0.964,0 1.921,0.114 2.845,0.339c0.353,0.086 0.698,0.187 1.037,0.303c0.524,0.178 1.092,-0.1 1.271,-0.622c0.179,-0.523 -0.1,-1.092 -0.622,-1.271c-0.397,-0.136 -0.802,-0.254 -1.213,-0.354c-1.079,-0.262 -2.195,-0.395 -3.318,-0.395c-7.72,0 -14,6.281 -14,14c0,7.719 6.28,14 14,14c7.72,0 14,-6.28 14,-14c0,-4.484 -2.174,-8.731 -5.814,-11.359zM17,22c0,0.553 -0.447,1 -1,1c-0.553,0 -1,-0.447 -1,-1v-6c0,-0.553 0.447,-1 1,-1c0.553,0 1,0.447 1,1zM16,13c-0.552,0 -1,-0.448 -1,-1c0,-0.552 0.448,-1 1,-1c0.552,0 1,0.448 1,1c0,0.552 -0.448,1 -1,1z"></path></g></g></svg>